HIERARCHY
ROOT pelvis
{
  OFFSET 0 100 0
  CHANNELS 6 Xposition Yposition Zposition Zrotation Xrotation Yrotation
  JOINT pelvis_right_femur
  {
    OFFSET -10.78128 -3.44521 -0.5502486
    CHANNELS 3 Zrotation Xrotation Yrotation
    JOINT right_femur_tibia
    {
      OFFSET -0.8047443 -44.0398 -0.1307829
      CHANNELS 3 Zrotation Xrotation Yrotation
      JOINT right_tibia_foot
      {
        OFFSET 3.006224 -47.83518 -5
        CHANNELS 3 Zrotation Xrotation Yrotation
        End Site
        {
          OFFSET 0 -5 15
        }
      }
    }
  }
  JOINT pelvis_left_femur
  {
    OFFSET 10.78128 -3.44521 -0.5502486
    CHANNELS 3 Zrotation Xrotation Yrotation
    JOINT left_femur_tibia
    {
      OFFSET 0.8047443 -44.0398 -0.1307829
      CHANNELS 3 Zrotation Xrotation Yrotation
      JOINT left_tibia_foot
      {
        OFFSET -4.370144 -48.10324 -4.275266
        CHANNELS 3 Zrotation Xrotation Yrotation
        End Site
        {
          OFFSET 0 -5 15
        }
      }
    }
  }
  JOINT pelvis_spine1
  {
    OFFSET 0 6.468898 -3.129235
    CHANNELS 3 Zrotation Xrotation Yrotation
    JOINT spine1
    {
      OFFSET 0 23.15396 4.99043
      CHANNELS 3 Zrotation Xrotation Yrotation
      JOINT spine2
      {
        OFFSET 0 20.79997 -5.064912
        CHANNELS 3 Zrotation Xrotation Yrotation
        JOINT neck
        {
          OFFSET 0 14.38658 9.616178
          CHANNELS 3 Zrotation Xrotation Yrotation
          End Site
          {
            OFFSET 0 20 0
          }
        }
      }
      JOINT right_manubrium
      {
        OFFSET -5.722621 16.35077 3.967754
        CHANNELS 3 Zrotation Xrotation Yrotation
        JOINT right_clavicle
        {
          OFFSET -13.16364 1.694482 -4.693211
          CHANNELS 3 Zrotation Xrotation Yrotation
          JOINT right_humerus
          {
            OFFSET -28.5034 -0.3100689 -2.792744
            CHANNELS 3 Zrotation Xrotation Yrotation
            JOINT right_radius
            {
              OFFSET -25.15693 0.02248979 -1.271978
              CHANNELS 3 Zrotation Xrotation Yrotation
              End Site
              {
                OFFSET -15 0 0
              }
            }
          }
        }
      }
      JOINT left_manubrium
      {
        OFFSET 5.722621 16.35077 3.967754
        CHANNELS 3 Zrotation Xrotation Yrotation
        JOINT left_clavicle
        {
          OFFSET 13.16364 1.694482 -4.693211
          CHANNELS 3 Zrotation Xrotation Yrotation
          JOINT left_humerus
          {
            OFFSET 29.39168 -1.063119 -2.237045
            CHANNELS 3 Zrotation Xrotation Yrotation
            JOINT left_radius
            {
              OFFSET 24.59957 -0.9528479 0.9047498
              CHANNELS 3 Zrotation Xrotation Yrotation
              End Site
              {
                OFFSET 15 -0 -0
              }
            }
          }
        }
      }
    }
  }
}
MOTION
Frames: 15
Frame Time: 0.0416666666667
1485.816 92.03711 2308.069 7.038165 -2.73067 51.50754 -0.5387068 11.17193 4.274557 -0 49.71807 -0 0.4476395 1.895698 -3.5204 -5.277188 -12.89662 -8.522167 -0 22.79757 -0 -3.544803 -10.28322 18.52599 -3.575711 -0.4739157 6.687045 -1.249936 10.06254 -3.301554 2.255925 22.50121 5.308132 2.455418 -17.76681 7.083282 2.037456 -19.09674 10.63532 83.94916 24.76686 -8.129269 -0 0 19.05804 -23.27344 9.530975 13.47793 3.55547 -15.13874 -3.157347 -92.06212 23.34317 23.36309 0 0 -7.067217 -0.7396488 6.793034 14.77593
1491.379 93.22674 2311.25 7.667344 -3.166499 52.72469 -0.4769819 5.397318 3.821716 -0 54.39373 -0 0.24502 3.114675 -4.690575 -5.700223 -7.676727 -8.910079 -0 20.96654 -0 -3.283723 -11.73107 17.82739 -3.475154 -0.01133503 5.554573 -1.145377 10.25111 -3.938801 2.048869 22.80502 5.559401 2.278528 -17.37882 7.261891 2.127425 -18.36757 10.64262 85.50416 24.72913 -10.01078 -0 0 17.24138 -22.77962 9.678439 13.00201 3.639525 -15.88915 -3.736785 -90.30435 23.57742 20.72757 0 0 -9.130077 -0.3755832 6.905091 14.37532
1496.511 94.19365 2314.185 7.929466 -3.648935 54.00787 -0.2174899 -1.281264 3.123122 -0 55.17545 -0 -0.3922948 2.77569 -5.700548 -5.608255 -2.25407 -9.04008 -0 18.20122 -0 -3.111996 -13.32359 17.02172 -3.131922 0.5136257 4.246825 -0.8190478 10.21471 -4.777855 1.835148 23.17081 5.777369 2.062298 -17.02763 7.429942 2.01772 -17.61957 10.55175 86.88135 24.60736 -11.96542 -0 0 15.35728 -22.24835 9.786333 12.52757 3.856632 -16.88053 -4.304936 -88.2791 23.8404 17.43776 0 0 -11.77267 0.1303386 7.401499 13.71949
1501.287 94.75892 2316.975 7.77529 -3.99753 55.17334 0.09690017 -8.155332 2.362818 -0 51.95522 -0 -1.323524 1.521337 -6.491373 -5.248333 2.927733 -9.059879 -0 15.66474 -0 -3.066472 -15.01423 16.14261 -2.721061 0.9593334 3.030216 -0.3063883 9.998849 -5.698994 1.708024 23.45657 5.906245 1.888389 -16.86849 7.578685 1.795987 -16.86153 10.38597 87.98487 24.44813 -13.93981 -0 0 13.54787 -21.64412 9.908063 11.99332 4.193253 -17.99741 -4.765596 -86.34017 24.05088 14.00997 0 0 -14.56854 0.7278059 8.180889 12.88001
1505.855 94.84871 2319.751 7.272891 -4.062257 56.127 0.3478639 -14.51227 1.662711 -0 45.39202 -0 -2.287055 -0.0491475 -7.071426 -4.871433 7.507121 -9.041934 -0 14.17613 -0 -3.215418 -16.76336 15.20336 -2.414924 1.251488 2.126693 0.2983035 9.641651 -6.551917 1.727234 23.57171 5.908194 1.790649 -16.93479 7.709812 1.535006 -16.08107 10.16174 88.811 24.28159 -15.86949 -0 0 11.91387 -20.90639 10.07478 11.32123 4.6506 -19.10516 -5.02496 -84.70483 24.17831 10.816 0 0 -17.22225 1.385534 9.029396 11.90326
1510.4 94.46921 2322.646 6.615465 -3.759742 56.8812 0.4120494 -19.71188 1.028024 -0 36.67003 -0 -3.039031 -1.543518 -7.47913 -4.67935 11.31111 -8.961461 -0 13.99032 -0 -3.608611 -18.4854 14.20458 -2.339658 1.367008 1.643024 0.8655533 9.168518 -7.205574 1.895367 23.52731 5.775801 1.753369 -17.10919 7.819701 1.262792 -15.23709 9.883846 89.4546 24.1126 -17.70153 -0 0 10.42343 -20.01951 10.27515 10.46128 5.222178 -20.1127 -5.043313 -83.35041 24.22584 7.917952 0 0 -19.69255 2.10454 9.725339 10.79608
1515.084 93.68135 2325.761 6.036787 -3.11772 57.51627 0.235757 -23.25799 0.431506 -0 27.31333 -0 -3.471856 -2.855645 -7.768726 -4.75418 14.36713 -8.799008 -0 14.87457 -0 -4.253276 -19.96875 13.18354 -2.514831 1.300336 1.535459 1.279633 8.597239 -7.586107 2.156662 23.42524 5.533925 1.732998 -17.20339 7.887659 0.9887619 -14.29542 9.568415 90.04301 23.94608 -19.38817 -0 0 8.961105 -18.99531 10.45601 9.40317 5.853209 -20.95656 -4.86129 -82.1458 24.26514 5.220586 0 0 -22.05961 2.842292 10.16701 9.625405
1519.994 92.62382 2329.144 5.598395 -2.32985 58.10188 0.08403066 -24.95233 0.06635047 -0 19.19376 -0 -3.675782 -4.101285 -7.989827 -4.951899 16.75915 -8.705872 -0 16.52791 -0 -5.11702 -20.7616 12.2733 -2.766858 1.055347 1.61655 1.51526 7.959589 -7.70233 2.415568 23.35889 5.241971 1.695686 -17.171 7.891239 0.7916817 -13.31324 9.278915 90.59036 23.89886 -20.82147 -0 0 7.537833 -17.77168 10.54879 8.183552 6.396264 -21.49663 -4.561189 -81.1706 24.48817 2.94496 0 0 -24.1141 3.417655 10.43242 8.662074
1525.108 91.58378 2332.768 5.00729 -1.757544 58.62032 0.6379773 -25.10854 0.4303945 -0 14.36486 -0 -3.895873 -5.269752 -8.096792 -4.885695 18.33478 -8.971595 -0 19.26104 -0 -6.104502 -20.15103 11.65374 -2.717946 0.6825332 1.647316 1.696179 7.39067 -7.673547 2.544155 23.2681 5.028225 1.67645 -17.32576 7.830091 0.9077665 -12.51716 9.159996 90.89391 24.33472 -21.81582 -0 0 6.425512 -16.26549 10.54882 6.985422 6.612655 -21.52373 -4.207209 -80.88817 25.03869 1.972695 0 0 -25.1327 3.622024 10.65129 8.288231
1530.332 90.97623 2336.554 3.924025 -1.734989 58.95278 2.36116 -24.34941 1.778922 -0 13.82931 -0 -4.315176 -6.005139 -7.900333 -4.268193 18.55736 -9.597645 -0 24.3358 -0 -7.026159 -17.61319 11.38141 -2.083272 0.315812 1.560415 2.009181 7.181675 -7.693729 2.423482 22.9824 5.063674 1.790156 -18.10631 7.713234 1.609128 -12.18513 9.38465 90.69331 25.64199 -22.26806 -0 0 5.875774 -14.70651 10.60299 6.203438 6.312629 -21.05566 -3.848985 -81.71584 25.64054 3.147639 0 0 -24.54618 3.533968 10.76159 8.550648
1535.593 91.09446 2340.405 2.74563 -2.223646 58.96431 4.594205 -22.73566 3.509776 -0 16.00509 -0 -4.823047 -6.227135 -7.336012 -3.407733 16.92264 -10.02804 -0 32.79073 -0 -7.675057 -13.69015 11.41841 -1.146299 0.135502 1.612446 2.45128 7.514104 -7.81037 2.114549 22.58507 5.318754 2.07202 -19.2795 7.532844 2.788312 -12.30863 9.938206 90.01315 27.52139 -22.24383 -0 0 5.737765 -13.68093 10.87157 6.103333 5.576107 -20.47801 -3.565129 -83.25981 25.8042 5.799716 0 0 -22.89056 3.447262 10.57992 9.019717
1540.846 91.88152 2344.224 2.429669 -2.833666 58.61897 6.057985 -19.62537 4.706725 -0 17.98703 -0 -5.148725 -6.527223 -6.696201 -2.884736 13.44168 -9.794435 -0 43.29353 -0 -7.992195 -9.925944 11.87249 -0.5566624 0.2531708 2.112917 2.763638 8.163327 -7.769906 1.892968 22.46331 5.473142 2.354548 -19.95142 7.287945 3.852084 -12.63115 10.53674 89.11258 28.94448 -21.70137 -0 0 5.840899 -13.50721 11.22846 6.472867 4.738862 -20.05075 -3.409541 -84.70221 25.61026 8.282842 0 0 -21.1602 3.342271 10.15663 9.418446
1546.004 93.04746 2347.934 3.203786 -3.260085 58.01112 6.346331 -14.84066 5.15581 -0 18.38887 -0 -5.192624 -7.280463 -6.212029 -2.776731 8.451721 -9.055925 -0 52.50002 -0 -8.057102 -7.438303 12.84981 -0.5540547 0.6117802 3.056518 2.738461 8.778998 -7.3292 1.916427 22.75249 5.333187 2.48709 -19.76252 7.016876 4.330105 -13.09747 10.95357 88.11498 29.32479 -20.45251 -0 0 6.440692 -13.98377 11.39976 6.998323 4.112414 -19.65915 -3.32803 -85.91209 25.44272 10.12516 0 0 -19.61256 2.996691 9.706653 9.850532
1550.976 94.27659 2351.491 4.442333 -3.444947 57.28091 5.94632 -9.064991 5.182763 -0 17.45918 -0 -5.035831 -8.298634 -5.778336 -2.745937 2.388897 -8.151482 -0 57.80702 -0 -7.926264 -6.259791 14.20782 -0.8957041 1.051414 4.202564 2.403073 9.230217 -6.544887 2.077808 23.20764 5.028066 2.495293 -19.12144 6.765612 4.233531 -13.84451 11.20485 87.01257 28.96388 -18.51361 -0 0 7.793185 -14.83891 11.30328 7.638738 3.813118 -19.19287 -3.233429 -87.16996 25.32997 11.87768 0 0 -18.11544 2.437477 9.314908 10.37447
1555.748 95.29052 2354.876 5.530249 -3.450274 56.53133 5.365699 -3.14174 5.046144 -0 15.79405 -0 -4.751917 -9.391602 -5.23198 -2.489062 -4.210321 -7.213523 -0 58.39962 -0 -7.631546 -5.954929 15.69522 -1.281448 1.445553 5.314029 1.886385 9.527828 -5.622474 2.209294 23.57341 4.753959 2.451658 -18.4665 6.553121 3.77144 -14.93492 11.37252 85.80801 28.34473 -16.10152 -0 0 9.862325 -15.95007 11.01643 8.469795 3.812547 -18.68136 -3.089605 -88.5411 25.11355 13.89363 0 0 -16.69431 1.833072 8.951536 10.92807
